<svg width="38" height="36" viewBox="0 0 38 36" fill="none" xmlns="http://www.w3.org/2000/svg">
<path d="M10.576 17.1092C8.71301 17.0102 6.94907 16.1938 5.66425 14.8394C4.25096 13.3485 3.54163 11.3945 3.67011 9.33877C3.77986 7.57215 4.53736 5.90189 5.80344 4.63313C7.06952 3.36706 8.73978 2.60955 10.5091 2.49981C12.5541 2.374 14.4974 3.07262 15.9829 4.46986C17.4498 5.84836 18.1859 7.176 18.2554 9.40034C17.0268 9.44852 15.8304 9.79649 14.7677 10.4175C14.7035 10.455 14.666 10.4764 14.666 10.4764C14.5215 8.46617 14.219 7.83715 13.4749 7.13585C12.7307 6.43723 11.7564 6.08926 10.7339 6.15082C8.9325 6.26325 7.43087 7.7622 7.32113 9.56362C7.25689 10.5888 7.60754 11.5604 8.30616 12.3046C9.00477 13.0487 9.95233 13.4582 10.9721 13.4582C12.4149 13.4582 13.5471 12.524 14.3368 11.8415C15.7447 10.6182 17.2517 10.3318 18.3277 10.4014C18.3277 11.622 18.6596 12.8185 19.2887 13.8678L19.2967 13.8838C19.2967 13.8838 17.7388 13.6161 16.9251 14.4299C15.0568 16.2982 12.8539 17.2297 10.576 17.1092Z" fill="#00983E"/>
<path d="M4.66281 9.32562C7.23801 9.32562 9.32562 7.23801 9.32562 4.66281C9.32562 2.08761 7.23801 0 4.66281 0C2.08761 0 0 2.08761 0 4.66281C0 7.23801 2.08761 9.32562 4.66281 9.32562Z" fill="#00983E"/>
<path d="M19.9907 9.91846C20.088 8.08763 20.8903 6.35413 22.2213 5.09149C23.6865 3.70259 25.6068 3.00551 27.627 3.13177C29.3631 3.23962 31.0046 3.98405 32.2514 5.22828C33.4956 6.4725 34.2401 8.11393 34.3479 9.85269C34.4716 11.8624 33.785 13.7721 32.4119 15.2321C31.0572 16.6736 29.7524 17.397 27.5665 17.4654C27.5191 16.258 27.1772 15.0821 26.5669 14.0378C26.5301 13.9747 26.509 13.9379 26.509 13.9379C28.4845 13.7958 29.1027 13.4986 29.7919 12.7673C30.4785 12.036 30.8204 11.0785 30.7599 10.0737C30.6494 8.30333 29.1764 6.82762 27.406 6.71977C26.3986 6.65664 25.4437 7.00123 24.7124 7.68779C23.9811 8.37435 23.5787 9.30555 23.5787 10.3078C23.5787 11.7256 24.4967 12.8383 25.1675 13.6143C26.3696 14.998 26.6511 16.4789 26.5827 17.5364C25.3832 17.5364 24.2073 17.8626 23.1762 18.4807L23.1604 18.4886C23.1604 18.4886 23.4235 16.9577 22.6238 16.158C20.7877 14.3219 19.8723 12.157 19.9907 9.91846Z" fill="#3E65F9"/>
<path d="M32.5184 9.84728C35.0491 9.84728 37.1007 7.7957 37.1007 5.26495C37.1007 2.7342 35.0491 0.682617 32.5184 0.682617C29.9876 0.682617 27.936 2.7342 27.936 5.26495C27.936 7.7957 29.9876 9.84728 32.5184 9.84728Z" fill="#3E65F9"/>
<path d="M18.5366 26.6124C18.4365 28.4942 17.6119 30.2759 16.2438 31.5737C14.7378 33.0012 12.7641 33.7177 10.6877 33.5879C8.90326 33.4771 7.21614 32.7119 5.93459 31.4331C4.65574 30.1542 3.89059 28.4671 3.77974 26.68C3.65266 24.6143 4.35833 22.6515 5.76966 21.1509C7.16207 19.6693 8.50311 18.9257 10.7499 18.8555C10.7986 20.0965 11.15 21.305 11.7773 22.3784C11.8151 22.4433 11.8368 22.4811 11.8368 22.4811C9.80629 22.6271 9.17092 22.9326 8.46255 23.6843C7.75688 24.4359 7.4054 25.42 7.46759 26.4529C7.58114 28.2725 9.09522 29.7892 10.9148 29.9001C11.9503 29.965 12.9318 29.6108 13.6834 28.9051C14.435 28.1995 14.8487 27.2423 14.8487 26.2122C14.8487 24.7549 13.9051 23.6113 13.2157 22.8137C11.9801 21.3915 11.6908 19.8693 11.7611 18.7825C12.994 18.7825 14.2025 18.4472 15.2624 17.8118L15.2786 17.8037C15.2786 17.8037 15.0082 19.3773 15.8301 20.1992C17.7173 22.0864 18.6582 24.3115 18.5366 26.6124Z" fill="#FF2A2D"/>
<path d="M4.78261 35.6077C7.38379 35.6077 9.49246 33.499 9.49246 30.8978C9.49246 28.2967 7.38379 26.188 4.78261 26.188C2.18143 26.188 0.0727539 28.2967 0.0727539 30.8978C0.0727539 33.499 2.18143 35.6077 4.78261 35.6077Z" fill="#FF2A2D"/>
<path d="M27.3631 18.5661C29.2324 18.6654 31.0024 19.4846 32.2916 20.8436C33.7097 22.3396 34.4214 24.3002 34.2925 26.3629C34.1824 28.1356 33.4223 29.8115 32.1519 31.0846C30.8815 32.355 29.2056 33.115 27.4303 33.2251C25.3783 33.3514 23.4284 32.6504 21.9378 31.2484C20.466 29.8652 19.7274 28.5331 19.6576 26.3012C20.8903 26.2528 22.0909 25.9037 23.1572 25.2806C23.2216 25.243 23.2592 25.2215 23.2592 25.2215C23.4043 27.2385 23.7078 27.8697 24.4544 28.5733C25.2011 29.2743 26.1787 29.6235 27.2047 29.5617C29.0122 29.4489 30.5189 27.9449 30.629 26.1373C30.6935 25.1087 30.3417 24.1337 29.6407 23.3871C28.9397 22.6404 27.9889 22.2295 26.9656 22.2295C25.518 22.2295 24.3819 23.1668 23.5896 23.8517C22.1768 25.0791 20.6647 25.3665 19.5851 25.2967C19.5851 24.072 19.252 22.8714 18.6209 21.8186L18.6128 21.8025C18.6128 21.8025 20.1759 22.071 20.9924 21.2545C22.8671 19.3799 25.0775 18.4452 27.3631 18.5661Z" fill="#FEC940"/>
<path d="M32.4223 35.2265C35.0063 35.2265 37.101 33.1318 37.101 30.5478C37.101 27.9638 35.0063 25.8691 32.4223 25.8691C29.8384 25.8691 27.7437 27.9638 27.7437 30.5478C27.7437 33.1318 29.8384 35.2265 32.4223 35.2265Z" fill="#FEC940"/>
</svg>
