<svg width="24" height="24" viewBox="0 0 24 24" fill="none" xmlns="http://www.w3.org/2000/svg">
<rect width="24" height="24" rx="6" fill="url(#paint0_linear_0_68)"/>
<path d="M12.1212 18.1842C10.335 18.1854 8.94512 17.666 7.76542 16.5913C7.48005 16.331 7.44184 15.9513 7.67945 15.6791C7.91348 15.4092 8.3099 15.3901 8.59408 15.648C9.15408 16.1579 9.78214 16.5567 10.52 16.7394C12.249 17.1704 13.8323 16.9018 15.1959 15.6898C15.3893 15.5179 15.5947 15.4188 15.8526 15.488C16.3266 15.6146 16.483 16.2057 16.1248 16.5436C15.4693 17.1633 14.7147 17.6206 13.8526 17.8952C13.2257 18.0946 12.5833 18.1866 12.1212 18.1842Z" fill="#063F6A" stroke="#063F6A" stroke-width="0.5"/>
<path d="M13.18 10.1698C13.18 10.8767 13.1824 11.5836 13.18 12.2904C13.1776 12.8671 12.9806 13.3531 12.4982 13.6982C12.2176 13.8988 11.8988 13.9871 11.5573 13.9955C11.3639 14.0003 11.1669 14.0074 10.9758 13.9824C10.6582 13.9394 10.4314 13.6373 10.4576 13.3244C10.4839 13.0056 10.7466 12.7525 11.0654 12.7442C11.2015 12.7406 11.3376 12.7442 11.4738 12.743C11.7973 12.7394 11.9227 12.614 11.9227 12.2868C11.9227 10.8456 11.9227 9.40445 11.9227 7.96326C11.9227 7.71848 12.0158 7.52385 12.2224 7.3937C12.4254 7.26594 12.6403 7.25878 12.8529 7.37818C13.0714 7.50117 13.18 7.6934 13.18 7.94296C13.1824 8.68445 13.18 9.42714 13.18 10.1686V10.1698Z" fill="#063F6A" stroke="#063F6A" stroke-width="0.5"/>
<path d="M6.47559 8.78591C6.47559 8.51367 6.47559 8.24263 6.47559 7.97039C6.47559 7.73875 6.55439 7.54293 6.74544 7.40561C7.09171 7.15845 7.56932 7.36382 7.65409 7.79367C7.65768 7.81278 7.66245 7.83188 7.66245 7.85099C7.66245 8.47905 7.67678 9.1083 7.65529 9.73636C7.64454 10.0587 7.36514 10.2832 7.06424 10.2796C6.76574 10.2761 6.50544 10.0384 6.48753 9.71725C6.46962 9.408 6.48394 9.09636 6.48394 8.78591H6.47678H6.47559Z" fill="#063F6A" stroke="#063F6A" stroke-width="0.5"/>
<path d="M16.3225 8.7823C16.3225 8.48379 16.3154 8.18409 16.3249 7.88559C16.3333 7.60976 16.5386 7.36738 16.7906 7.31245C17.1512 7.23484 17.4998 7.50588 17.5094 7.89991C17.5225 8.49335 17.5213 9.08797 17.5094 9.6826C17.5022 10.0289 17.224 10.2844 16.9028 10.2796C16.584 10.2736 16.3309 10.0062 16.3225 9.65633C16.3166 9.36499 16.3213 9.07364 16.3213 8.7823H16.3237H16.3225Z" fill="#063F6A" stroke="#063F6A" stroke-width="0.5"/>
<defs>
<linearGradient id="paint0_linear_0_68" x1="12" y1="0" x2="12" y2="24" gradientUnits="userSpaceOnUse">
<stop stop-color="#65F0FF"/>
<stop offset="1" stop-color="#3CC8E8"/>
</linearGradient>
</defs>
</svg>
