<svg width="38" height="36" viewBox="0 0 38 36" fill="none" xmlns="http://www.w3.org/2000/svg">
<path d="M10.5758 17.3055C8.71277 17.2065 6.94883 16.3901 5.66401 15.0357C4.25071 13.5448 3.54139 11.5908 3.66987 9.53506C3.77961 7.76844 4.53712 6.09818 5.8032 4.82942C7.06928 3.56335 8.73954 2.80584 10.5088 2.6961C12.5538 2.57029 14.4971 3.26891 15.9827 4.66615C17.4495 6.04465 18.1856 7.37229 18.2552 9.59663C17.0266 9.64481 15.8301 9.99278 14.7675 10.6138C14.7032 10.6512 14.6658 10.6727 14.6658 10.6727C14.5212 8.66246 14.2187 8.03343 13.4746 7.33214C12.7305 6.63352 11.7562 6.28555 10.7337 6.34711C8.93226 6.45953 7.43063 7.95849 7.32089 9.75991C7.25665 10.7851 7.60729 11.7567 8.30591 12.5008C9.00453 13.245 9.95208 13.6545 10.9719 13.6545C12.4146 13.6545 13.5469 12.7203 14.3365 12.0378C15.7445 10.8145 17.2514 10.5281 18.3275 10.5977C18.3275 11.8183 18.6594 13.0148 19.2884 14.064L19.2964 14.0801C19.2964 14.0801 17.7386 13.8124 16.9249 14.6261C15.0565 16.4945 12.8536 17.426 10.5758 17.3055Z" fill="#00983E"/>
<path d="M4.66281 9.52191C7.23801 9.52191 9.32562 7.4343 9.32562 4.8591C9.32562 2.2839 7.23801 0.196289 4.66281 0.196289C2.08761 0.196289 0 2.2839 0 4.8591C0 7.4343 2.08761 9.52191 4.66281 9.52191Z" fill="#00983E"/>
<path d="M19.9907 10.1147C20.088 8.28392 20.8903 6.55042 22.2213 5.28778C23.6865 3.89888 25.6068 3.20179 27.627 3.32806C29.3631 3.43591 31.0046 4.18034 32.2514 5.42457C33.4956 6.66879 34.2401 8.31022 34.3479 10.049C34.4716 12.0587 33.785 13.9684 32.4119 15.4284C31.0572 16.8699 29.7524 17.5933 27.5665 17.6616C27.5191 16.4542 27.1772 15.2784 26.5669 14.2341C26.5301 14.171 26.509 14.1341 26.509 14.1341C28.4845 13.9921 29.1027 13.6949 29.7919 12.9636C30.4785 12.2323 30.8204 11.2748 30.7599 10.2699C30.6494 8.49962 29.1764 7.02391 27.406 6.91606C26.3986 6.85293 25.4437 7.19752 24.7124 7.88408C23.9811 8.57064 23.5787 9.50184 23.5787 10.5041C23.5787 11.9219 24.4967 13.0346 25.1675 13.8106C26.3696 15.1942 26.6511 16.6752 26.5827 17.7327C25.3832 17.7327 24.2073 18.0589 23.1762 18.677L23.1604 18.6849C23.1604 18.6849 23.4235 17.154 22.6238 16.3543C20.7877 14.5182 19.8723 12.3533 19.9907 10.1147Z" fill="#3E65F9"/>
<path d="M32.5185 10.0436C35.0492 10.0436 37.1008 7.99199 37.1008 5.46124C37.1008 2.93049 35.0492 0.878906 32.5185 0.878906C29.9877 0.878906 27.9362 2.93049 27.9362 5.46124C27.9362 7.99199 29.9877 10.0436 32.5185 10.0436Z" fill="#3E65F9"/>
<path d="M18.5366 26.8087C18.4365 28.6904 17.6119 30.4722 16.2438 31.77C14.7378 33.1975 12.7641 33.914 10.6877 33.7842C8.90326 33.6734 7.21614 32.9082 5.93459 31.6294C4.65574 30.3505 3.89059 28.6634 3.77974 26.8763C3.65266 24.8106 4.35833 22.8477 5.76966 21.3472C7.16207 19.8656 8.50311 19.122 10.7499 19.0517C10.7986 20.2927 11.15 21.5013 11.7773 22.5747C11.8151 22.6396 11.8368 22.6774 11.8368 22.6774C9.80629 22.8234 9.17092 23.1289 8.46255 23.8806C7.75689 24.6322 7.4054 25.6163 7.46759 26.6491C7.58114 28.4687 9.09522 29.9855 10.9148 30.0964C11.9503 30.1613 12.9318 29.8071 13.6834 29.1014C14.435 28.3957 14.8487 27.4386 14.8487 26.4085C14.8487 24.9512 13.9051 23.8076 13.2157 23.01C11.9801 21.5878 11.6908 20.0656 11.7611 18.9787C12.994 18.9787 14.2025 18.6435 15.2624 18.0081L15.2786 18C15.2786 18 15.0082 19.5736 15.8301 20.3955C17.7173 22.2827 18.6582 24.5078 18.5366 26.8087Z" fill="#FF2A2D"/>
<path d="M4.78261 35.804C7.38379 35.804 9.49246 33.6953 9.49246 31.0941C9.49246 28.493 7.38379 26.3843 4.78261 26.3843C2.18143 26.3843 0.0727539 28.493 0.0727539 31.0941C0.0727539 33.6953 2.18143 35.804 4.78261 35.804Z" fill="#FF2A2D"/>
<path d="M27.363 18.7624C29.2323 18.8617 31.0023 19.6809 32.2914 21.0399C33.7095 22.5359 34.4213 24.4965 34.2924 26.5592C34.1822 28.3319 33.4222 30.0078 32.1518 31.2809C30.8814 32.5512 29.2055 33.3113 27.4301 33.4214C25.3782 33.5477 23.4283 32.8467 21.9377 31.4447C20.4659 30.0615 19.7273 28.7294 19.6574 26.4975C20.8902 26.4491 22.0908 26.1 23.157 25.4768C23.2215 25.4392 23.2591 25.4178 23.2591 25.4178C23.4041 27.4348 23.7076 28.066 24.4543 28.7696C25.2009 29.4706 26.1786 29.8198 27.2045 29.758C29.0121 29.6452 30.5188 28.1412 30.6289 26.3336C30.6934 25.305 30.3415 24.33 29.6406 23.5834C28.9396 22.8367 27.9888 22.4258 26.9655 22.4258C25.5179 22.4258 24.3818 23.3631 23.5895 24.048C22.1767 25.2754 20.6646 25.5628 19.5849 25.493C19.5849 24.2682 19.2519 23.0677 18.6207 22.0149L18.6127 21.9987C18.6127 21.9987 20.1758 22.2673 20.9923 21.4508C22.867 19.5762 25.0774 18.6415 27.363 18.7624Z" fill="#FEC940"/>
<path d="M32.4224 35.4227C35.0064 35.4227 37.1011 33.328 37.1011 30.7441C37.1011 28.1601 35.0064 26.0654 32.4224 26.0654C29.8385 26.0654 27.7438 28.1601 27.7438 30.7441C27.7438 33.328 29.8385 35.4227 32.4224 35.4227Z" fill="#FEC940"/>
</svg>
